<mxfile host="app.diagrams.net" modified="2021-06-30T22:44:10.271Z" agent="5.0 (Windows NT 10.0; Win64; x64) AppleWebKit/537.36 (KHTML, like Gecko) Chrome/91.0.4472.114 Safari/537.36" etag="oYQtvV0ao3PSOwxN2WL7" version="14.8.3" type="github">
  <diagram id="hnnvDxnK_jNdMAZsy6wo" name="Page-1">
    <mxGraphModel dx="62" dy="824" grid="1" gridSize="10" guides="1" tooltips="1" connect="1" arrows="1" fold="1" page="1" pageScale="1" pageWidth="850" pageHeight="1100" math="0" shadow="0">
      <root>
        <mxCell id="0" />
        <mxCell id="1" parent="0" />
        <mxCell id="L8o548h7l8kxrl9L79Oe-96" style="edgeStyle=orthogonalEdgeStyle;rounded=0;orthogonalLoop=1;jettySize=auto;html=1;exitX=0.25;exitY=0;exitDx=0;exitDy=0;" edge="1" parent="1" source="L8o548h7l8kxrl9L79Oe-1" target="L8o548h7l8kxrl9L79Oe-9">
          <mxGeometry relative="1" as="geometry" />
        </mxCell>
        <mxCell id="L8o548h7l8kxrl9L79Oe-119" style="edgeStyle=orthogonalEdgeStyle;rounded=0;orthogonalLoop=1;jettySize=auto;html=1;exitX=0;exitY=0.25;exitDx=0;exitDy=0;entryX=1;entryY=0.5;entryDx=0;entryDy=0;" edge="1" parent="1" source="L8o548h7l8kxrl9L79Oe-1" target="L8o548h7l8kxrl9L79Oe-37">
          <mxGeometry relative="1" as="geometry" />
        </mxCell>
        <mxCell id="L8o548h7l8kxrl9L79Oe-120" style="edgeStyle=orthogonalEdgeStyle;rounded=0;orthogonalLoop=1;jettySize=auto;html=1;exitX=0;exitY=0.5;exitDx=0;exitDy=0;entryX=1;entryY=0.5;entryDx=0;entryDy=0;" edge="1" parent="1" source="L8o548h7l8kxrl9L79Oe-1" target="L8o548h7l8kxrl9L79Oe-2">
          <mxGeometry relative="1" as="geometry" />
        </mxCell>
        <mxCell id="L8o548h7l8kxrl9L79Oe-122" style="edgeStyle=orthogonalEdgeStyle;rounded=0;orthogonalLoop=1;jettySize=auto;html=1;exitX=0;exitY=1;exitDx=0;exitDy=0;entryX=0.988;entryY=0.733;entryDx=0;entryDy=0;entryPerimeter=0;" edge="1" parent="1" source="L8o548h7l8kxrl9L79Oe-1" target="L8o548h7l8kxrl9L79Oe-6">
          <mxGeometry relative="1" as="geometry" />
        </mxCell>
        <mxCell id="L8o548h7l8kxrl9L79Oe-123" style="edgeStyle=orthogonalEdgeStyle;rounded=0;orthogonalLoop=1;jettySize=auto;html=1;exitX=1;exitY=0;exitDx=0;exitDy=0;entryX=0.025;entryY=0.267;entryDx=0;entryDy=0;entryPerimeter=0;" edge="1" parent="1" source="L8o548h7l8kxrl9L79Oe-1" target="L8o548h7l8kxrl9L79Oe-14">
          <mxGeometry relative="1" as="geometry" />
        </mxCell>
        <mxCell id="L8o548h7l8kxrl9L79Oe-124" style="edgeStyle=orthogonalEdgeStyle;rounded=0;orthogonalLoop=1;jettySize=auto;html=1;exitX=1;exitY=0.5;exitDx=0;exitDy=0;entryX=-0.025;entryY=0.3;entryDx=0;entryDy=0;entryPerimeter=0;" edge="1" parent="1" source="L8o548h7l8kxrl9L79Oe-1" target="L8o548h7l8kxrl9L79Oe-8">
          <mxGeometry relative="1" as="geometry" />
        </mxCell>
        <mxCell id="L8o548h7l8kxrl9L79Oe-190" value="" style="edgeStyle=orthogonalEdgeStyle;rounded=0;orthogonalLoop=1;jettySize=auto;html=1;" edge="1" parent="1" source="L8o548h7l8kxrl9L79Oe-1" target="L8o548h7l8kxrl9L79Oe-47">
          <mxGeometry relative="1" as="geometry" />
        </mxCell>
        <mxCell id="L8o548h7l8kxrl9L79Oe-212" style="edgeStyle=orthogonalEdgeStyle;rounded=0;orthogonalLoop=1;jettySize=auto;html=1;exitX=1;exitY=1;exitDx=0;exitDy=0;entryX=0;entryY=0.5;entryDx=0;entryDy=0;" edge="1" parent="1" source="L8o548h7l8kxrl9L79Oe-1" target="L8o548h7l8kxrl9L79Oe-211">
          <mxGeometry relative="1" as="geometry" />
        </mxCell>
        <mxCell id="L8o548h7l8kxrl9L79Oe-1" value="Player" style="rounded=0;whiteSpace=wrap;html=1;" vertex="1" parent="1">
          <mxGeometry x="1380" y="747.5" width="120" height="60" as="geometry" />
        </mxCell>
        <mxCell id="L8o548h7l8kxrl9L79Oe-2" value="Name" style="ellipse;whiteSpace=wrap;html=1;" vertex="1" parent="1">
          <mxGeometry x="1260" y="787.5" width="80" height="30" as="geometry" />
        </mxCell>
        <mxCell id="L8o548h7l8kxrl9L79Oe-6" value="Age" style="ellipse;whiteSpace=wrap;html=1;" vertex="1" parent="1">
          <mxGeometry x="1260" y="827.5" width="80" height="30" as="geometry" />
        </mxCell>
        <mxCell id="L8o548h7l8kxrl9L79Oe-8" value="Birthplace" style="ellipse;whiteSpace=wrap;html=1;" vertex="1" parent="1">
          <mxGeometry x="1530" y="762.5" width="80" height="30" as="geometry" />
        </mxCell>
        <mxCell id="L8o548h7l8kxrl9L79Oe-97" style="edgeStyle=orthogonalEdgeStyle;rounded=0;orthogonalLoop=1;jettySize=auto;html=1;exitX=0.5;exitY=0;exitDx=0;exitDy=0;entryX=0.5;entryY=1;entryDx=0;entryDy=0;" edge="1" parent="1" source="L8o548h7l8kxrl9L79Oe-9" target="L8o548h7l8kxrl9L79Oe-18">
          <mxGeometry relative="1" as="geometry" />
        </mxCell>
        <mxCell id="L8o548h7l8kxrl9L79Oe-253" style="edgeStyle=orthogonalEdgeStyle;rounded=0;orthogonalLoop=1;jettySize=auto;html=1;exitX=1;exitY=0.5;exitDx=0;exitDy=0;entryX=0;entryY=0.5;entryDx=0;entryDy=0;" edge="1" parent="1" source="L8o548h7l8kxrl9L79Oe-9" target="L8o548h7l8kxrl9L79Oe-210">
          <mxGeometry relative="1" as="geometry" />
        </mxCell>
        <mxCell id="L8o548h7l8kxrl9L79Oe-254" style="edgeStyle=orthogonalEdgeStyle;rounded=0;orthogonalLoop=1;jettySize=auto;html=1;exitX=1;exitY=0.5;exitDx=0;exitDy=0;entryX=0;entryY=0.5;entryDx=0;entryDy=0;" edge="1" parent="1" source="L8o548h7l8kxrl9L79Oe-9" target="L8o548h7l8kxrl9L79Oe-182">
          <mxGeometry relative="1" as="geometry" />
        </mxCell>
        <mxCell id="L8o548h7l8kxrl9L79Oe-9" value="Plays For&lt;br&gt;" style="rhombus;whiteSpace=wrap;html=1;" vertex="1" parent="1">
          <mxGeometry x="1100" y="430" width="80" height="80" as="geometry" />
        </mxCell>
        <mxCell id="L8o548h7l8kxrl9L79Oe-14" value="Height" style="ellipse;whiteSpace=wrap;html=1;" vertex="1" parent="1">
          <mxGeometry x="1530" y="722.5" width="80" height="30" as="geometry" />
        </mxCell>
        <mxCell id="L8o548h7l8kxrl9L79Oe-15" value="Player Number" style="ellipse;whiteSpace=wrap;html=1;" vertex="1" parent="1">
          <mxGeometry x="1350" y="490" width="80" height="30" as="geometry" />
        </mxCell>
        <mxCell id="L8o548h7l8kxrl9L79Oe-95" value="" style="edgeStyle=orthogonalEdgeStyle;rounded=0;orthogonalLoop=1;jettySize=auto;html=1;" edge="1" parent="1" source="L8o548h7l8kxrl9L79Oe-16" target="L8o548h7l8kxrl9L79Oe-30">
          <mxGeometry relative="1" as="geometry" />
        </mxCell>
        <mxCell id="L8o548h7l8kxrl9L79Oe-106" style="edgeStyle=orthogonalEdgeStyle;rounded=0;orthogonalLoop=1;jettySize=auto;html=1;exitX=1;exitY=0;exitDx=0;exitDy=0;entryX=0;entryY=0.5;entryDx=0;entryDy=0;" edge="1" parent="1" source="L8o548h7l8kxrl9L79Oe-16" target="L8o548h7l8kxrl9L79Oe-60">
          <mxGeometry relative="1" as="geometry">
            <Array as="points">
              <mxPoint x="1550" y="370" />
              <mxPoint x="1575" y="370" />
              <mxPoint x="1575" y="385" />
            </Array>
          </mxGeometry>
        </mxCell>
        <mxCell id="L8o548h7l8kxrl9L79Oe-107" style="edgeStyle=orthogonalEdgeStyle;rounded=0;orthogonalLoop=1;jettySize=auto;html=1;exitX=1;exitY=0.25;exitDx=0;exitDy=0;entryX=0;entryY=0.5;entryDx=0;entryDy=0;" edge="1" parent="1" source="L8o548h7l8kxrl9L79Oe-16" target="L8o548h7l8kxrl9L79Oe-36">
          <mxGeometry relative="1" as="geometry" />
        </mxCell>
        <mxCell id="L8o548h7l8kxrl9L79Oe-108" style="edgeStyle=orthogonalEdgeStyle;rounded=0;orthogonalLoop=1;jettySize=auto;html=1;exitX=1;exitY=0.5;exitDx=0;exitDy=0;entryX=0;entryY=0.5;entryDx=0;entryDy=0;" edge="1" parent="1" source="L8o548h7l8kxrl9L79Oe-16" target="L8o548h7l8kxrl9L79Oe-57">
          <mxGeometry relative="1" as="geometry" />
        </mxCell>
        <mxCell id="L8o548h7l8kxrl9L79Oe-109" style="edgeStyle=orthogonalEdgeStyle;rounded=0;orthogonalLoop=1;jettySize=auto;html=1;exitX=1;exitY=0.75;exitDx=0;exitDy=0;entryX=0;entryY=0.5;entryDx=0;entryDy=0;" edge="1" parent="1" source="L8o548h7l8kxrl9L79Oe-16" target="L8o548h7l8kxrl9L79Oe-94">
          <mxGeometry relative="1" as="geometry" />
        </mxCell>
        <mxCell id="L8o548h7l8kxrl9L79Oe-110" style="edgeStyle=orthogonalEdgeStyle;rounded=0;orthogonalLoop=1;jettySize=auto;html=1;exitX=1;exitY=1;exitDx=0;exitDy=0;entryX=0;entryY=0.5;entryDx=0;entryDy=0;" edge="1" parent="1" source="L8o548h7l8kxrl9L79Oe-16" target="L8o548h7l8kxrl9L79Oe-93">
          <mxGeometry relative="1" as="geometry" />
        </mxCell>
        <mxCell id="L8o548h7l8kxrl9L79Oe-111" style="edgeStyle=orthogonalEdgeStyle;rounded=0;orthogonalLoop=1;jettySize=auto;html=1;exitX=1;exitY=1;exitDx=0;exitDy=0;entryX=0;entryY=0.5;entryDx=0;entryDy=0;" edge="1" parent="1" source="L8o548h7l8kxrl9L79Oe-16" target="L8o548h7l8kxrl9L79Oe-92">
          <mxGeometry relative="1" as="geometry" />
        </mxCell>
        <mxCell id="L8o548h7l8kxrl9L79Oe-112" style="edgeStyle=orthogonalEdgeStyle;rounded=0;orthogonalLoop=1;jettySize=auto;html=1;exitX=1;exitY=1;exitDx=0;exitDy=0;entryX=0;entryY=0.5;entryDx=0;entryDy=0;" edge="1" parent="1" source="L8o548h7l8kxrl9L79Oe-16" target="L8o548h7l8kxrl9L79Oe-91">
          <mxGeometry relative="1" as="geometry" />
        </mxCell>
        <mxCell id="L8o548h7l8kxrl9L79Oe-172" value="" style="edgeStyle=orthogonalEdgeStyle;rounded=0;orthogonalLoop=1;jettySize=auto;html=1;" edge="1" parent="1" source="L8o548h7l8kxrl9L79Oe-16" target="L8o548h7l8kxrl9L79Oe-171">
          <mxGeometry relative="1" as="geometry" />
        </mxCell>
        <mxCell id="L8o548h7l8kxrl9L79Oe-209" style="edgeStyle=orthogonalEdgeStyle;rounded=0;orthogonalLoop=1;jettySize=auto;html=1;exitX=1;exitY=0;exitDx=0;exitDy=0;entryX=0;entryY=0.5;entryDx=0;entryDy=0;" edge="1" parent="1" source="L8o548h7l8kxrl9L79Oe-16" target="L8o548h7l8kxrl9L79Oe-207">
          <mxGeometry relative="1" as="geometry" />
        </mxCell>
        <mxCell id="L8o548h7l8kxrl9L79Oe-230" value="" style="edgeStyle=orthogonalEdgeStyle;rounded=0;orthogonalLoop=1;jettySize=auto;html=1;" edge="1" parent="1" source="L8o548h7l8kxrl9L79Oe-16" target="L8o548h7l8kxrl9L79Oe-229">
          <mxGeometry relative="1" as="geometry" />
        </mxCell>
        <mxCell id="L8o548h7l8kxrl9L79Oe-16" value="Club Team" style="rounded=0;whiteSpace=wrap;html=1;" vertex="1" parent="1">
          <mxGeometry x="1430" y="350" width="120" height="60" as="geometry" />
        </mxCell>
        <mxCell id="L8o548h7l8kxrl9L79Oe-113" style="edgeStyle=orthogonalEdgeStyle;rounded=0;orthogonalLoop=1;jettySize=auto;html=1;exitX=0;exitY=0;exitDx=0;exitDy=0;entryX=1;entryY=0.5;entryDx=0;entryDy=0;" edge="1" parent="1" source="L8o548h7l8kxrl9L79Oe-18" target="L8o548h7l8kxrl9L79Oe-34">
          <mxGeometry relative="1" as="geometry" />
        </mxCell>
        <mxCell id="L8o548h7l8kxrl9L79Oe-114" style="edgeStyle=orthogonalEdgeStyle;rounded=0;orthogonalLoop=1;jettySize=auto;html=1;exitX=0;exitY=0.25;exitDx=0;exitDy=0;entryX=1;entryY=0.5;entryDx=0;entryDy=0;" edge="1" parent="1" source="L8o548h7l8kxrl9L79Oe-18" target="L8o548h7l8kxrl9L79Oe-56">
          <mxGeometry relative="1" as="geometry" />
        </mxCell>
        <mxCell id="L8o548h7l8kxrl9L79Oe-115" style="edgeStyle=orthogonalEdgeStyle;rounded=0;orthogonalLoop=1;jettySize=auto;html=1;exitX=0;exitY=0.5;exitDx=0;exitDy=0;entryX=1;entryY=0.5;entryDx=0;entryDy=0;" edge="1" parent="1" source="L8o548h7l8kxrl9L79Oe-18" target="L8o548h7l8kxrl9L79Oe-69">
          <mxGeometry relative="1" as="geometry" />
        </mxCell>
        <mxCell id="L8o548h7l8kxrl9L79Oe-116" style="edgeStyle=orthogonalEdgeStyle;rounded=0;orthogonalLoop=1;jettySize=auto;html=1;exitX=0;exitY=0.75;exitDx=0;exitDy=0;entryX=1;entryY=0.5;entryDx=0;entryDy=0;" edge="1" parent="1" source="L8o548h7l8kxrl9L79Oe-18" target="L8o548h7l8kxrl9L79Oe-68">
          <mxGeometry relative="1" as="geometry" />
        </mxCell>
        <mxCell id="L8o548h7l8kxrl9L79Oe-117" style="edgeStyle=orthogonalEdgeStyle;rounded=0;orthogonalLoop=1;jettySize=auto;html=1;exitX=0;exitY=1;exitDx=0;exitDy=0;entryX=1;entryY=0.5;entryDx=0;entryDy=0;" edge="1" parent="1" source="L8o548h7l8kxrl9L79Oe-18" target="L8o548h7l8kxrl9L79Oe-67">
          <mxGeometry relative="1" as="geometry" />
        </mxCell>
        <mxCell id="L8o548h7l8kxrl9L79Oe-118" style="edgeStyle=orthogonalEdgeStyle;rounded=0;orthogonalLoop=1;jettySize=auto;html=1;exitX=0;exitY=1;exitDx=0;exitDy=0;entryX=1;entryY=0.5;entryDx=0;entryDy=0;" edge="1" parent="1" source="L8o548h7l8kxrl9L79Oe-18" target="L8o548h7l8kxrl9L79Oe-66">
          <mxGeometry relative="1" as="geometry" />
        </mxCell>
        <mxCell id="L8o548h7l8kxrl9L79Oe-176" value="" style="edgeStyle=orthogonalEdgeStyle;rounded=0;orthogonalLoop=1;jettySize=auto;html=1;" edge="1" parent="1" source="L8o548h7l8kxrl9L79Oe-18" target="L8o548h7l8kxrl9L79Oe-174">
          <mxGeometry relative="1" as="geometry" />
        </mxCell>
        <mxCell id="L8o548h7l8kxrl9L79Oe-180" style="edgeStyle=orthogonalEdgeStyle;rounded=0;orthogonalLoop=1;jettySize=auto;html=1;exitX=0.75;exitY=1;exitDx=0;exitDy=0;" edge="1" parent="1" source="L8o548h7l8kxrl9L79Oe-18" target="L8o548h7l8kxrl9L79Oe-78">
          <mxGeometry relative="1" as="geometry" />
        </mxCell>
        <mxCell id="L8o548h7l8kxrl9L79Oe-208" style="edgeStyle=orthogonalEdgeStyle;rounded=0;orthogonalLoop=1;jettySize=auto;html=1;exitX=0.25;exitY=0;exitDx=0;exitDy=0;entryX=1;entryY=0.5;entryDx=0;entryDy=0;" edge="1" parent="1" source="L8o548h7l8kxrl9L79Oe-18" target="L8o548h7l8kxrl9L79Oe-206">
          <mxGeometry relative="1" as="geometry" />
        </mxCell>
        <mxCell id="L8o548h7l8kxrl9L79Oe-18" value="International Team" style="rounded=0;whiteSpace=wrap;html=1;" vertex="1" parent="1">
          <mxGeometry x="990" y="270" width="120" height="60" as="geometry" />
        </mxCell>
        <mxCell id="L8o548h7l8kxrl9L79Oe-191" style="edgeStyle=orthogonalEdgeStyle;rounded=0;orthogonalLoop=1;jettySize=auto;html=1;exitX=0.5;exitY=1;exitDx=0;exitDy=0;" edge="1" parent="1" source="L8o548h7l8kxrl9L79Oe-30" target="L8o548h7l8kxrl9L79Oe-1">
          <mxGeometry relative="1" as="geometry" />
        </mxCell>
        <mxCell id="L8o548h7l8kxrl9L79Oe-200" style="edgeStyle=orthogonalEdgeStyle;rounded=0;orthogonalLoop=1;jettySize=auto;html=1;exitX=0;exitY=0.5;exitDx=0;exitDy=0;" edge="1" parent="1" source="L8o548h7l8kxrl9L79Oe-30" target="L8o548h7l8kxrl9L79Oe-15">
          <mxGeometry relative="1" as="geometry" />
        </mxCell>
        <mxCell id="L8o548h7l8kxrl9L79Oe-201" style="edgeStyle=orthogonalEdgeStyle;rounded=0;orthogonalLoop=1;jettySize=auto;html=1;exitX=0;exitY=0.5;exitDx=0;exitDy=0;entryX=1;entryY=0.5;entryDx=0;entryDy=0;" edge="1" parent="1" source="L8o548h7l8kxrl9L79Oe-30" target="L8o548h7l8kxrl9L79Oe-70">
          <mxGeometry relative="1" as="geometry" />
        </mxCell>
        <mxCell id="L8o548h7l8kxrl9L79Oe-30" value="Signs" style="rhombus;whiteSpace=wrap;html=1;" vertex="1" parent="1">
          <mxGeometry x="1450" y="480" width="80" height="80" as="geometry" />
        </mxCell>
        <mxCell id="L8o548h7l8kxrl9L79Oe-34" value="Name" style="ellipse;whiteSpace=wrap;html=1;rounded=0;" vertex="1" parent="1">
          <mxGeometry x="860" y="250" width="80" height="30" as="geometry" />
        </mxCell>
        <mxCell id="L8o548h7l8kxrl9L79Oe-36" value="Name" style="ellipse;whiteSpace=wrap;html=1;rounded=0;" vertex="1" parent="1">
          <mxGeometry x="1600" y="410" width="80" height="30" as="geometry" />
        </mxCell>
        <mxCell id="L8o548h7l8kxrl9L79Oe-37" value="&lt;b&gt;PlayerID&lt;/b&gt;" style="ellipse;whiteSpace=wrap;html=1;" vertex="1" parent="1">
          <mxGeometry x="1260" y="747.5" width="80" height="30" as="geometry" />
        </mxCell>
        <mxCell id="L8o548h7l8kxrl9L79Oe-177" value="" style="edgeStyle=orthogonalEdgeStyle;rounded=0;orthogonalLoop=1;jettySize=auto;html=1;" edge="1" parent="1" source="L8o548h7l8kxrl9L79Oe-47" target="L8o548h7l8kxrl9L79Oe-48">
          <mxGeometry relative="1" as="geometry" />
        </mxCell>
        <mxCell id="L8o548h7l8kxrl9L79Oe-214" value="" style="edgeStyle=orthogonalEdgeStyle;rounded=0;orthogonalLoop=1;jettySize=auto;html=1;" edge="1" parent="1" source="L8o548h7l8kxrl9L79Oe-47" target="L8o548h7l8kxrl9L79Oe-213">
          <mxGeometry relative="1" as="geometry" />
        </mxCell>
        <mxCell id="L8o548h7l8kxrl9L79Oe-279" value="" style="edgeStyle=orthogonalEdgeStyle;rounded=0;orthogonalLoop=1;jettySize=auto;html=1;" edge="1" parent="1" source="L8o548h7l8kxrl9L79Oe-47" target="L8o548h7l8kxrl9L79Oe-267">
          <mxGeometry relative="1" as="geometry" />
        </mxCell>
        <mxCell id="L8o548h7l8kxrl9L79Oe-47" value="Has" style="rhombus;whiteSpace=wrap;html=1;" vertex="1" parent="1">
          <mxGeometry x="1400" y="860" width="80" height="80" as="geometry" />
        </mxCell>
        <mxCell id="L8o548h7l8kxrl9L79Oe-278" style="edgeStyle=orthogonalEdgeStyle;rounded=0;orthogonalLoop=1;jettySize=auto;html=1;exitX=0.75;exitY=1;exitDx=0;exitDy=0;" edge="1" parent="1" source="L8o548h7l8kxrl9L79Oe-48" target="L8o548h7l8kxrl9L79Oe-204">
          <mxGeometry relative="1" as="geometry" />
        </mxCell>
        <mxCell id="L8o548h7l8kxrl9L79Oe-48" value="Sponsorships" style="rounded=0;whiteSpace=wrap;html=1;" vertex="1" parent="1">
          <mxGeometry x="1565" y="850" width="120" height="60" as="geometry" />
        </mxCell>
        <mxCell id="L8o548h7l8kxrl9L79Oe-56" value="&lt;b&gt;TeamID&lt;/b&gt;" style="ellipse;whiteSpace=wrap;html=1;" vertex="1" parent="1">
          <mxGeometry x="860" y="290" width="80" height="30" as="geometry" />
        </mxCell>
        <mxCell id="L8o548h7l8kxrl9L79Oe-57" value="&lt;b&gt;ClubID&lt;/b&gt;" style="ellipse;whiteSpace=wrap;html=1;" vertex="1" parent="1">
          <mxGeometry x="1600" y="450" width="80" height="30" as="geometry" />
        </mxCell>
        <mxCell id="L8o548h7l8kxrl9L79Oe-60" value="League" style="ellipse;whiteSpace=wrap;html=1;" vertex="1" parent="1">
          <mxGeometry x="1600" y="370" width="80" height="30" as="geometry" />
        </mxCell>
        <mxCell id="L8o548h7l8kxrl9L79Oe-61" value="Wins" style="ellipse;whiteSpace=wrap;html=1;" vertex="1" parent="1">
          <mxGeometry x="1000" y="790" width="80" height="30" as="geometry" />
        </mxCell>
        <mxCell id="L8o548h7l8kxrl9L79Oe-62" value="Appearances" style="ellipse;whiteSpace=wrap;html=1;" vertex="1" parent="1">
          <mxGeometry x="1060" y="747.5" width="80" height="30" as="geometry" />
        </mxCell>
        <mxCell id="L8o548h7l8kxrl9L79Oe-66" value="Manager" style="ellipse;whiteSpace=wrap;html=1;" vertex="1" parent="1">
          <mxGeometry x="860" y="440" width="80" height="30" as="geometry" />
        </mxCell>
        <mxCell id="L8o548h7l8kxrl9L79Oe-67" value="Coach" style="ellipse;whiteSpace=wrap;html=1;" vertex="1" parent="1">
          <mxGeometry x="860" y="400" width="80" height="30" as="geometry" />
        </mxCell>
        <mxCell id="L8o548h7l8kxrl9L79Oe-68" value="Kits" style="ellipse;whiteSpace=wrap;html=1;" vertex="1" parent="1">
          <mxGeometry x="860" y="360" width="80" height="30" as="geometry" />
        </mxCell>
        <mxCell id="L8o548h7l8kxrl9L79Oe-69" value="Location" style="ellipse;whiteSpace=wrap;html=1;" vertex="1" parent="1">
          <mxGeometry x="860" y="325" width="80" height="30" as="geometry" />
        </mxCell>
        <mxCell id="L8o548h7l8kxrl9L79Oe-70" value="Salary" style="ellipse;whiteSpace=wrap;html=1;" vertex="1" parent="1">
          <mxGeometry x="1350" y="525" width="80" height="30" as="geometry" />
        </mxCell>
        <mxCell id="L8o548h7l8kxrl9L79Oe-81" value="" style="edgeStyle=orthogonalEdgeStyle;rounded=0;orthogonalLoop=1;jettySize=auto;html=1;" edge="1" parent="1" source="L8o548h7l8kxrl9L79Oe-78" target="L8o548h7l8kxrl9L79Oe-80">
          <mxGeometry relative="1" as="geometry" />
        </mxCell>
        <mxCell id="L8o548h7l8kxrl9L79Oe-178" value="" style="edgeStyle=orthogonalEdgeStyle;rounded=0;orthogonalLoop=1;jettySize=auto;html=1;" edge="1" parent="1" source="L8o548h7l8kxrl9L79Oe-78" target="L8o548h7l8kxrl9L79Oe-86">
          <mxGeometry relative="1" as="geometry" />
        </mxCell>
        <mxCell id="L8o548h7l8kxrl9L79Oe-78" value="Plays In" style="rhombus;whiteSpace=wrap;html=1;" vertex="1" parent="1">
          <mxGeometry x="960" y="510" width="80" height="80" as="geometry" />
        </mxCell>
        <mxCell id="L8o548h7l8kxrl9L79Oe-186" style="edgeStyle=orthogonalEdgeStyle;rounded=0;orthogonalLoop=1;jettySize=auto;html=1;exitX=1;exitY=1;exitDx=0;exitDy=0;" edge="1" parent="1" source="L8o548h7l8kxrl9L79Oe-80" target="L8o548h7l8kxrl9L79Oe-62">
          <mxGeometry relative="1" as="geometry" />
        </mxCell>
        <mxCell id="L8o548h7l8kxrl9L79Oe-188" style="edgeStyle=orthogonalEdgeStyle;rounded=0;orthogonalLoop=1;jettySize=auto;html=1;exitX=0.5;exitY=1;exitDx=0;exitDy=0;entryX=0.5;entryY=0;entryDx=0;entryDy=0;" edge="1" parent="1" source="L8o548h7l8kxrl9L79Oe-80" target="L8o548h7l8kxrl9L79Oe-61">
          <mxGeometry relative="1" as="geometry" />
        </mxCell>
        <mxCell id="L8o548h7l8kxrl9L79Oe-80" value="World Cup" style="rounded=0;whiteSpace=wrap;html=1;" vertex="1" parent="1">
          <mxGeometry x="980" y="662.5" width="120" height="60" as="geometry" />
        </mxCell>
        <mxCell id="L8o548h7l8kxrl9L79Oe-131" value="" style="edgeStyle=orthogonalEdgeStyle;rounded=0;orthogonalLoop=1;jettySize=auto;html=1;" edge="1" parent="1" source="L8o548h7l8kxrl9L79Oe-86" target="L8o548h7l8kxrl9L79Oe-130">
          <mxGeometry relative="1" as="geometry">
            <Array as="points">
              <mxPoint x="900" y="700" />
              <mxPoint x="900" y="700" />
            </Array>
          </mxGeometry>
        </mxCell>
        <mxCell id="L8o548h7l8kxrl9L79Oe-189" style="edgeStyle=orthogonalEdgeStyle;rounded=0;orthogonalLoop=1;jettySize=auto;html=1;exitX=0.75;exitY=1;exitDx=0;exitDy=0;" edge="1" parent="1" source="L8o548h7l8kxrl9L79Oe-86" target="L8o548h7l8kxrl9L79Oe-129">
          <mxGeometry relative="1" as="geometry">
            <Array as="points">
              <mxPoint x="950" y="690" />
            </Array>
          </mxGeometry>
        </mxCell>
        <mxCell id="L8o548h7l8kxrl9L79Oe-86" value="European Championship" style="rounded=0;whiteSpace=wrap;html=1;" vertex="1" parent="1">
          <mxGeometry x="850" y="630" width="120" height="60" as="geometry" />
        </mxCell>
        <mxCell id="L8o548h7l8kxrl9L79Oe-91" value="Manager" style="ellipse;whiteSpace=wrap;html=1;" vertex="1" parent="1">
          <mxGeometry x="1600" y="610" width="80" height="30" as="geometry" />
        </mxCell>
        <mxCell id="L8o548h7l8kxrl9L79Oe-92" value="Coach" style="ellipse;whiteSpace=wrap;html=1;" vertex="1" parent="1">
          <mxGeometry x="1600" y="570" width="80" height="30" as="geometry" />
        </mxCell>
        <mxCell id="L8o548h7l8kxrl9L79Oe-93" value="Kits" style="ellipse;whiteSpace=wrap;html=1;" vertex="1" parent="1">
          <mxGeometry x="1600" y="530" width="80" height="30" as="geometry" />
        </mxCell>
        <mxCell id="L8o548h7l8kxrl9L79Oe-94" value="Location" style="ellipse;whiteSpace=wrap;html=1;" vertex="1" parent="1">
          <mxGeometry x="1600" y="490" width="80" height="30" as="geometry" />
        </mxCell>
        <mxCell id="L8o548h7l8kxrl9L79Oe-100" value="N" style="text;html=1;align=center;verticalAlign=middle;resizable=0;points=[];autosize=1;strokeColor=none;" vertex="1" parent="1">
          <mxGeometry x="1380" y="727.5" width="20" height="20" as="geometry" />
        </mxCell>
        <mxCell id="L8o548h7l8kxrl9L79Oe-101" value="1" style="text;html=1;align=center;verticalAlign=middle;resizable=0;points=[];autosize=1;strokeColor=none;" vertex="1" parent="1">
          <mxGeometry x="1010" y="330" width="20" height="20" as="geometry" />
        </mxCell>
        <mxCell id="L8o548h7l8kxrl9L79Oe-104" value="M" style="text;html=1;align=center;verticalAlign=middle;resizable=0;points=[];autosize=1;strokeColor=none;" vertex="1" parent="1">
          <mxGeometry x="1530" y="850" width="30" height="20" as="geometry" />
        </mxCell>
        <mxCell id="L8o548h7l8kxrl9L79Oe-129" value="Wins" style="ellipse;whiteSpace=wrap;html=1;" vertex="1" parent="1">
          <mxGeometry x="900" y="760" width="80" height="30" as="geometry" />
        </mxCell>
        <mxCell id="L8o548h7l8kxrl9L79Oe-130" value="Appearances" style="ellipse;whiteSpace=wrap;html=1;" vertex="1" parent="1">
          <mxGeometry x="860" y="707.5" width="80" height="30" as="geometry" />
        </mxCell>
        <mxCell id="L8o548h7l8kxrl9L79Oe-145" value="" style="edgeStyle=orthogonalEdgeStyle;rounded=0;orthogonalLoop=1;jettySize=auto;html=1;" edge="1" parent="1" source="L8o548h7l8kxrl9L79Oe-135" target="L8o548h7l8kxrl9L79Oe-140">
          <mxGeometry relative="1" as="geometry" />
        </mxCell>
        <mxCell id="L8o548h7l8kxrl9L79Oe-146" style="edgeStyle=orthogonalEdgeStyle;rounded=0;orthogonalLoop=1;jettySize=auto;html=1;exitX=0;exitY=0.5;exitDx=0;exitDy=0;entryX=0.988;entryY=0.733;entryDx=0;entryDy=0;entryPerimeter=0;" edge="1" parent="1" source="L8o548h7l8kxrl9L79Oe-135" target="L8o548h7l8kxrl9L79Oe-139">
          <mxGeometry relative="1" as="geometry" />
        </mxCell>
        <mxCell id="L8o548h7l8kxrl9L79Oe-147" style="edgeStyle=orthogonalEdgeStyle;rounded=0;orthogonalLoop=1;jettySize=auto;html=1;exitX=0;exitY=1;exitDx=0;exitDy=0;entryX=1;entryY=0.5;entryDx=0;entryDy=0;" edge="1" parent="1" source="L8o548h7l8kxrl9L79Oe-135" target="L8o548h7l8kxrl9L79Oe-137">
          <mxGeometry relative="1" as="geometry" />
        </mxCell>
        <mxCell id="L8o548h7l8kxrl9L79Oe-148" style="edgeStyle=orthogonalEdgeStyle;rounded=0;orthogonalLoop=1;jettySize=auto;html=1;exitX=0;exitY=0;exitDx=0;exitDy=0;entryX=1;entryY=0.5;entryDx=0;entryDy=0;" edge="1" parent="1" source="L8o548h7l8kxrl9L79Oe-135" target="L8o548h7l8kxrl9L79Oe-138">
          <mxGeometry relative="1" as="geometry" />
        </mxCell>
        <mxCell id="L8o548h7l8kxrl9L79Oe-149" style="edgeStyle=orthogonalEdgeStyle;rounded=0;orthogonalLoop=1;jettySize=auto;html=1;exitX=1;exitY=0;exitDx=0;exitDy=0;entryX=0;entryY=0.5;entryDx=0;entryDy=0;" edge="1" parent="1" source="L8o548h7l8kxrl9L79Oe-135" target="L8o548h7l8kxrl9L79Oe-136">
          <mxGeometry relative="1" as="geometry" />
        </mxCell>
        <mxCell id="L8o548h7l8kxrl9L79Oe-150" style="edgeStyle=orthogonalEdgeStyle;rounded=0;orthogonalLoop=1;jettySize=auto;html=1;exitX=1;exitY=0.25;exitDx=0;exitDy=0;entryX=0;entryY=0.5;entryDx=0;entryDy=0;" edge="1" parent="1" source="L8o548h7l8kxrl9L79Oe-135" target="L8o548h7l8kxrl9L79Oe-141">
          <mxGeometry relative="1" as="geometry" />
        </mxCell>
        <mxCell id="L8o548h7l8kxrl9L79Oe-151" style="edgeStyle=orthogonalEdgeStyle;rounded=0;orthogonalLoop=1;jettySize=auto;html=1;exitX=1;exitY=0.75;exitDx=0;exitDy=0;entryX=0;entryY=0.5;entryDx=0;entryDy=0;" edge="1" parent="1" source="L8o548h7l8kxrl9L79Oe-135" target="L8o548h7l8kxrl9L79Oe-143">
          <mxGeometry relative="1" as="geometry" />
        </mxCell>
        <mxCell id="L8o548h7l8kxrl9L79Oe-153" style="edgeStyle=orthogonalEdgeStyle;rounded=0;orthogonalLoop=1;jettySize=auto;html=1;exitX=1;exitY=1;exitDx=0;exitDy=0;entryX=0;entryY=0.5;entryDx=0;entryDy=0;" edge="1" parent="1" source="L8o548h7l8kxrl9L79Oe-135" target="L8o548h7l8kxrl9L79Oe-142">
          <mxGeometry relative="1" as="geometry" />
        </mxCell>
        <mxCell id="L8o548h7l8kxrl9L79Oe-135" value="Player Stats" style="rounded=0;whiteSpace=wrap;html=1;" vertex="1" parent="1">
          <mxGeometry x="1460" y="60" width="120" height="60" as="geometry" />
        </mxCell>
        <mxCell id="L8o548h7l8kxrl9L79Oe-136" value="&lt;b&gt;PlayerID&lt;/b&gt;" style="ellipse;whiteSpace=wrap;html=1;" vertex="1" parent="1">
          <mxGeometry x="1605" y="20" width="80" height="30" as="geometry" />
        </mxCell>
        <mxCell id="L8o548h7l8kxrl9L79Oe-137" value="Minutes Played" style="ellipse;whiteSpace=wrap;html=1;" vertex="1" parent="1">
          <mxGeometry x="1355" y="140" width="80" height="30" as="geometry" />
        </mxCell>
        <mxCell id="L8o548h7l8kxrl9L79Oe-138" value="Second Yellows" style="ellipse;whiteSpace=wrap;html=1;" vertex="1" parent="1">
          <mxGeometry x="1355" y="20" width="80" height="30" as="geometry" />
        </mxCell>
        <mxCell id="L8o548h7l8kxrl9L79Oe-139" value="Red Cards" style="ellipse;whiteSpace=wrap;html=1;" vertex="1" parent="1">
          <mxGeometry x="1355" y="100" width="80" height="30" as="geometry" />
        </mxCell>
        <mxCell id="L8o548h7l8kxrl9L79Oe-140" value="Yellow Cards" style="ellipse;whiteSpace=wrap;html=1;" vertex="1" parent="1">
          <mxGeometry x="1355" y="60" width="80" height="30" as="geometry" />
        </mxCell>
        <mxCell id="L8o548h7l8kxrl9L79Oe-141" value="Assists" style="ellipse;whiteSpace=wrap;html=1;" vertex="1" parent="1">
          <mxGeometry x="1605" y="60" width="80" height="30" as="geometry" />
        </mxCell>
        <mxCell id="L8o548h7l8kxrl9L79Oe-142" value="Goals" style="ellipse;whiteSpace=wrap;html=1;" vertex="1" parent="1">
          <mxGeometry x="1605" y="140" width="80" height="30" as="geometry" />
        </mxCell>
        <mxCell id="L8o548h7l8kxrl9L79Oe-143" value="Appearances" style="ellipse;whiteSpace=wrap;html=1;" vertex="1" parent="1">
          <mxGeometry x="1605" y="100" width="80" height="30" as="geometry" />
        </mxCell>
        <mxCell id="L8o548h7l8kxrl9L79Oe-154" value="" style="edgeStyle=orthogonalEdgeStyle;rounded=0;orthogonalLoop=1;jettySize=auto;html=1;" edge="1" parent="1" source="L8o548h7l8kxrl9L79Oe-162" target="L8o548h7l8kxrl9L79Oe-167">
          <mxGeometry relative="1" as="geometry" />
        </mxCell>
        <mxCell id="L8o548h7l8kxrl9L79Oe-155" style="edgeStyle=orthogonalEdgeStyle;rounded=0;orthogonalLoop=1;jettySize=auto;html=1;exitX=0;exitY=0.5;exitDx=0;exitDy=0;entryX=0.988;entryY=0.733;entryDx=0;entryDy=0;entryPerimeter=0;" edge="1" parent="1" source="L8o548h7l8kxrl9L79Oe-162" target="L8o548h7l8kxrl9L79Oe-166">
          <mxGeometry relative="1" as="geometry" />
        </mxCell>
        <mxCell id="L8o548h7l8kxrl9L79Oe-156" style="edgeStyle=orthogonalEdgeStyle;rounded=0;orthogonalLoop=1;jettySize=auto;html=1;exitX=0;exitY=1;exitDx=0;exitDy=0;entryX=1;entryY=0.5;entryDx=0;entryDy=0;" edge="1" parent="1" source="L8o548h7l8kxrl9L79Oe-162" target="L8o548h7l8kxrl9L79Oe-164">
          <mxGeometry relative="1" as="geometry" />
        </mxCell>
        <mxCell id="L8o548h7l8kxrl9L79Oe-157" style="edgeStyle=orthogonalEdgeStyle;rounded=0;orthogonalLoop=1;jettySize=auto;html=1;exitX=0;exitY=0;exitDx=0;exitDy=0;entryX=1;entryY=0.5;entryDx=0;entryDy=0;" edge="1" parent="1" source="L8o548h7l8kxrl9L79Oe-162" target="L8o548h7l8kxrl9L79Oe-165">
          <mxGeometry relative="1" as="geometry" />
        </mxCell>
        <mxCell id="L8o548h7l8kxrl9L79Oe-158" style="edgeStyle=orthogonalEdgeStyle;rounded=0;orthogonalLoop=1;jettySize=auto;html=1;exitX=1;exitY=0;exitDx=0;exitDy=0;entryX=0;entryY=0.5;entryDx=0;entryDy=0;" edge="1" parent="1" source="L8o548h7l8kxrl9L79Oe-162" target="L8o548h7l8kxrl9L79Oe-163">
          <mxGeometry relative="1" as="geometry" />
        </mxCell>
        <mxCell id="L8o548h7l8kxrl9L79Oe-159" style="edgeStyle=orthogonalEdgeStyle;rounded=0;orthogonalLoop=1;jettySize=auto;html=1;exitX=1;exitY=0.25;exitDx=0;exitDy=0;entryX=0;entryY=0.5;entryDx=0;entryDy=0;" edge="1" parent="1" source="L8o548h7l8kxrl9L79Oe-162" target="L8o548h7l8kxrl9L79Oe-168">
          <mxGeometry relative="1" as="geometry" />
        </mxCell>
        <mxCell id="L8o548h7l8kxrl9L79Oe-160" style="edgeStyle=orthogonalEdgeStyle;rounded=0;orthogonalLoop=1;jettySize=auto;html=1;exitX=1;exitY=0.75;exitDx=0;exitDy=0;entryX=0;entryY=0.5;entryDx=0;entryDy=0;" edge="1" parent="1" source="L8o548h7l8kxrl9L79Oe-162" target="L8o548h7l8kxrl9L79Oe-170">
          <mxGeometry relative="1" as="geometry" />
        </mxCell>
        <mxCell id="L8o548h7l8kxrl9L79Oe-161" style="edgeStyle=orthogonalEdgeStyle;rounded=0;orthogonalLoop=1;jettySize=auto;html=1;exitX=1;exitY=1;exitDx=0;exitDy=0;entryX=0;entryY=0.5;entryDx=0;entryDy=0;" edge="1" parent="1" source="L8o548h7l8kxrl9L79Oe-162" target="L8o548h7l8kxrl9L79Oe-169">
          <mxGeometry relative="1" as="geometry" />
        </mxCell>
        <mxCell id="L8o548h7l8kxrl9L79Oe-162" value="Player Stats" style="rounded=0;whiteSpace=wrap;html=1;" vertex="1" parent="1">
          <mxGeometry x="990" y="60" width="120" height="60" as="geometry" />
        </mxCell>
        <mxCell id="L8o548h7l8kxrl9L79Oe-163" value="&lt;b&gt;PlayerID&lt;/b&gt;" style="ellipse;whiteSpace=wrap;html=1;" vertex="1" parent="1">
          <mxGeometry x="1140" y="20" width="80" height="30" as="geometry" />
        </mxCell>
        <mxCell id="L8o548h7l8kxrl9L79Oe-164" value="Minutes Played" style="ellipse;whiteSpace=wrap;html=1;" vertex="1" parent="1">
          <mxGeometry x="890" y="140" width="80" height="30" as="geometry" />
        </mxCell>
        <mxCell id="L8o548h7l8kxrl9L79Oe-165" value="Second Yellows" style="ellipse;whiteSpace=wrap;html=1;" vertex="1" parent="1">
          <mxGeometry x="890" y="20" width="80" height="30" as="geometry" />
        </mxCell>
        <mxCell id="L8o548h7l8kxrl9L79Oe-166" value="Red Cards" style="ellipse;whiteSpace=wrap;html=1;" vertex="1" parent="1">
          <mxGeometry x="890" y="100" width="80" height="30" as="geometry" />
        </mxCell>
        <mxCell id="L8o548h7l8kxrl9L79Oe-167" value="Yellow Cards" style="ellipse;whiteSpace=wrap;html=1;" vertex="1" parent="1">
          <mxGeometry x="890" y="60" width="80" height="30" as="geometry" />
        </mxCell>
        <mxCell id="L8o548h7l8kxrl9L79Oe-168" value="Assists" style="ellipse;whiteSpace=wrap;html=1;" vertex="1" parent="1">
          <mxGeometry x="1140" y="60" width="80" height="30" as="geometry" />
        </mxCell>
        <mxCell id="L8o548h7l8kxrl9L79Oe-169" value="Goals" style="ellipse;whiteSpace=wrap;html=1;" vertex="1" parent="1">
          <mxGeometry x="1140" y="140" width="80" height="30" as="geometry" />
        </mxCell>
        <mxCell id="L8o548h7l8kxrl9L79Oe-170" value="Appearances" style="ellipse;whiteSpace=wrap;html=1;" vertex="1" parent="1">
          <mxGeometry x="1140" y="100" width="80" height="30" as="geometry" />
        </mxCell>
        <mxCell id="L8o548h7l8kxrl9L79Oe-173" value="" style="edgeStyle=orthogonalEdgeStyle;rounded=0;orthogonalLoop=1;jettySize=auto;html=1;" edge="1" parent="1" source="L8o548h7l8kxrl9L79Oe-171" target="L8o548h7l8kxrl9L79Oe-135">
          <mxGeometry relative="1" as="geometry" />
        </mxCell>
        <mxCell id="L8o548h7l8kxrl9L79Oe-171" value="Record" style="rhombus;whiteSpace=wrap;html=1;rounded=0;" vertex="1" parent="1">
          <mxGeometry x="1480" y="180" width="80" height="80" as="geometry" />
        </mxCell>
        <mxCell id="L8o548h7l8kxrl9L79Oe-175" value="" style="edgeStyle=orthogonalEdgeStyle;rounded=0;orthogonalLoop=1;jettySize=auto;html=1;" edge="1" parent="1" source="L8o548h7l8kxrl9L79Oe-174" target="L8o548h7l8kxrl9L79Oe-162">
          <mxGeometry relative="1" as="geometry" />
        </mxCell>
        <mxCell id="L8o548h7l8kxrl9L79Oe-174" value="Record" style="rhombus;whiteSpace=wrap;html=1;rounded=0;" vertex="1" parent="1">
          <mxGeometry x="1010" y="160" width="80" height="80" as="geometry" />
        </mxCell>
        <mxCell id="L8o548h7l8kxrl9L79Oe-182" value="Salary" style="ellipse;whiteSpace=wrap;html=1;" vertex="1" parent="1">
          <mxGeometry x="1220" y="505" width="80" height="30" as="geometry" />
        </mxCell>
        <mxCell id="L8o548h7l8kxrl9L79Oe-192" value="N" style="text;html=1;align=center;verticalAlign=middle;resizable=0;points=[];autosize=1;strokeColor=none;" vertex="1" parent="1">
          <mxGeometry x="1450" y="730" width="20" height="20" as="geometry" />
        </mxCell>
        <mxCell id="L8o548h7l8kxrl9L79Oe-193" value="1" style="text;html=1;align=center;verticalAlign=middle;resizable=0;points=[];autosize=1;strokeColor=none;" vertex="1" parent="1">
          <mxGeometry x="1490" y="410" width="20" height="20" as="geometry" />
        </mxCell>
        <mxCell id="L8o548h7l8kxrl9L79Oe-194" value="1" style="text;html=1;align=center;verticalAlign=middle;resizable=0;points=[];autosize=1;strokeColor=none;" vertex="1" parent="1">
          <mxGeometry x="1490" y="330" width="20" height="20" as="geometry" />
        </mxCell>
        <mxCell id="L8o548h7l8kxrl9L79Oe-195" value="N" style="text;html=1;align=center;verticalAlign=middle;resizable=0;points=[];autosize=1;strokeColor=none;" vertex="1" parent="1">
          <mxGeometry x="1520" y="120" width="20" height="20" as="geometry" />
        </mxCell>
        <mxCell id="L8o548h7l8kxrl9L79Oe-196" value="N" style="text;html=1;align=center;verticalAlign=middle;resizable=0;points=[];autosize=1;strokeColor=none;" vertex="1" parent="1">
          <mxGeometry x="1020" y="120" width="20" height="20" as="geometry" />
        </mxCell>
        <mxCell id="L8o548h7l8kxrl9L79Oe-197" value="N" style="text;html=1;align=center;verticalAlign=middle;resizable=0;points=[];autosize=1;strokeColor=none;" vertex="1" parent="1">
          <mxGeometry x="1080" y="330" width="20" height="20" as="geometry" />
        </mxCell>
        <mxCell id="L8o548h7l8kxrl9L79Oe-198" value="1" style="text;html=1;align=center;verticalAlign=middle;resizable=0;points=[];autosize=1;strokeColor=none;" vertex="1" parent="1">
          <mxGeometry x="1040" y="640" width="20" height="20" as="geometry" />
        </mxCell>
        <mxCell id="L8o548h7l8kxrl9L79Oe-199" value="1" style="text;html=1;align=center;verticalAlign=middle;resizable=0;points=[];autosize=1;strokeColor=none;" vertex="1" parent="1">
          <mxGeometry x="880" y="610" width="20" height="20" as="geometry" />
        </mxCell>
        <mxCell id="L8o548h7l8kxrl9L79Oe-202" value="1" style="text;html=1;align=center;verticalAlign=middle;resizable=0;points=[];autosize=1;strokeColor=none;" vertex="1" parent="1">
          <mxGeometry x="1050" y="250" width="20" height="20" as="geometry" />
        </mxCell>
        <mxCell id="L8o548h7l8kxrl9L79Oe-203" value="N" style="text;html=1;align=center;verticalAlign=middle;resizable=0;points=[];autosize=1;strokeColor=none;" vertex="1" parent="1">
          <mxGeometry x="1450" y="810" width="20" height="20" as="geometry" />
        </mxCell>
        <mxCell id="L8o548h7l8kxrl9L79Oe-204" value="Brand" style="ellipse;whiteSpace=wrap;html=1;" vertex="1" parent="1">
          <mxGeometry x="1620" y="940" width="80" height="30" as="geometry" />
        </mxCell>
        <mxCell id="L8o548h7l8kxrl9L79Oe-206" value="Roster" style="ellipse;whiteSpace=wrap;html=1;" vertex="1" parent="1">
          <mxGeometry x="860" y="205" width="80" height="30" as="geometry" />
        </mxCell>
        <mxCell id="L8o548h7l8kxrl9L79Oe-207" value="Roster" style="ellipse;whiteSpace=wrap;html=1;" vertex="1" parent="1">
          <mxGeometry x="1600" y="330" width="80" height="30" as="geometry" />
        </mxCell>
        <mxCell id="L8o548h7l8kxrl9L79Oe-210" value="Player Number" style="ellipse;whiteSpace=wrap;html=1;" vertex="1" parent="1">
          <mxGeometry x="1220" y="455" width="80" height="30" as="geometry" />
        </mxCell>
        <mxCell id="L8o548h7l8kxrl9L79Oe-211" value="Dominant Foot" style="ellipse;whiteSpace=wrap;html=1;" vertex="1" parent="1">
          <mxGeometry x="1530" y="800" width="80" height="30" as="geometry" />
        </mxCell>
        <mxCell id="L8o548h7l8kxrl9L79Oe-222" value="" style="edgeStyle=orthogonalEdgeStyle;rounded=0;orthogonalLoop=1;jettySize=auto;html=1;" edge="1" parent="1" source="L8o548h7l8kxrl9L79Oe-213" target="L8o548h7l8kxrl9L79Oe-220">
          <mxGeometry relative="1" as="geometry" />
        </mxCell>
        <mxCell id="L8o548h7l8kxrl9L79Oe-223" style="edgeStyle=orthogonalEdgeStyle;rounded=0;orthogonalLoop=1;jettySize=auto;html=1;exitX=0;exitY=0.5;exitDx=0;exitDy=0;entryX=1;entryY=0.5;entryDx=0;entryDy=0;" edge="1" parent="1" source="L8o548h7l8kxrl9L79Oe-213">
          <mxGeometry relative="1" as="geometry">
            <mxPoint x="950" y="855" as="targetPoint" />
          </mxGeometry>
        </mxCell>
        <mxCell id="L8o548h7l8kxrl9L79Oe-224" style="edgeStyle=orthogonalEdgeStyle;rounded=0;orthogonalLoop=1;jettySize=auto;html=1;exitX=0;exitY=0.5;exitDx=0;exitDy=0;entryX=1;entryY=0.5;entryDx=0;entryDy=0;" edge="1" parent="1" source="L8o548h7l8kxrl9L79Oe-213" target="L8o548h7l8kxrl9L79Oe-215">
          <mxGeometry relative="1" as="geometry" />
        </mxCell>
        <mxCell id="L8o548h7l8kxrl9L79Oe-225" style="edgeStyle=orthogonalEdgeStyle;rounded=0;orthogonalLoop=1;jettySize=auto;html=1;exitX=0;exitY=0.5;exitDx=0;exitDy=0;entryX=1;entryY=0.5;entryDx=0;entryDy=0;" edge="1" parent="1" source="L8o548h7l8kxrl9L79Oe-213" target="L8o548h7l8kxrl9L79Oe-219">
          <mxGeometry relative="1" as="geometry" />
        </mxCell>
        <mxCell id="L8o548h7l8kxrl9L79Oe-226" value="" style="edgeStyle=orthogonalEdgeStyle;rounded=0;orthogonalLoop=1;jettySize=auto;html=1;" edge="1" parent="1" source="L8o548h7l8kxrl9L79Oe-213" target="L8o548h7l8kxrl9L79Oe-218">
          <mxGeometry relative="1" as="geometry" />
        </mxCell>
        <mxCell id="L8o548h7l8kxrl9L79Oe-227" style="edgeStyle=orthogonalEdgeStyle;rounded=0;orthogonalLoop=1;jettySize=auto;html=1;exitX=0.25;exitY=1;exitDx=0;exitDy=0;entryX=0.5;entryY=0;entryDx=0;entryDy=0;" edge="1" parent="1" source="L8o548h7l8kxrl9L79Oe-213" target="L8o548h7l8kxrl9L79Oe-216">
          <mxGeometry relative="1" as="geometry" />
        </mxCell>
        <mxCell id="L8o548h7l8kxrl9L79Oe-228" style="edgeStyle=orthogonalEdgeStyle;rounded=0;orthogonalLoop=1;jettySize=auto;html=1;exitX=0.75;exitY=1;exitDx=0;exitDy=0;entryX=0.5;entryY=0;entryDx=0;entryDy=0;" edge="1" parent="1" source="L8o548h7l8kxrl9L79Oe-213" target="L8o548h7l8kxrl9L79Oe-217">
          <mxGeometry relative="1" as="geometry" />
        </mxCell>
        <mxCell id="L8o548h7l8kxrl9L79Oe-213" value="FIFA Stats" style="whiteSpace=wrap;html=1;" vertex="1" parent="1">
          <mxGeometry x="1030" y="880" width="120" height="60" as="geometry" />
        </mxCell>
        <mxCell id="L8o548h7l8kxrl9L79Oe-215" value="Physical" style="ellipse;whiteSpace=wrap;html=1;" vertex="1" parent="1">
          <mxGeometry x="870" y="920" width="80" height="30" as="geometry" />
        </mxCell>
        <mxCell id="L8o548h7l8kxrl9L79Oe-216" value="Defense" style="ellipse;whiteSpace=wrap;html=1;" vertex="1" parent="1">
          <mxGeometry x="950" y="990" width="80" height="30" as="geometry" />
        </mxCell>
        <mxCell id="L8o548h7l8kxrl9L79Oe-217" value="Dribbling" style="ellipse;whiteSpace=wrap;html=1;" vertex="1" parent="1">
          <mxGeometry x="1130" y="990" width="80" height="30" as="geometry" />
        </mxCell>
        <mxCell id="L8o548h7l8kxrl9L79Oe-218" value="Passing" style="ellipse;whiteSpace=wrap;html=1;" vertex="1" parent="1">
          <mxGeometry x="1040" y="990" width="80" height="30" as="geometry" />
        </mxCell>
        <mxCell id="L8o548h7l8kxrl9L79Oe-219" value="Shooting" style="ellipse;whiteSpace=wrap;html=1;" vertex="1" parent="1">
          <mxGeometry x="870" y="960" width="80" height="30" as="geometry" />
        </mxCell>
        <mxCell id="L8o548h7l8kxrl9L79Oe-220" value="Pace" style="ellipse;whiteSpace=wrap;html=1;" vertex="1" parent="1">
          <mxGeometry x="870" y="880" width="80" height="30" as="geometry" />
        </mxCell>
        <mxCell id="L8o548h7l8kxrl9L79Oe-221" value="Overall Rating" style="ellipse;whiteSpace=wrap;html=1;" vertex="1" parent="1">
          <mxGeometry x="870" y="840" width="80" height="30" as="geometry" />
        </mxCell>
        <mxCell id="L8o548h7l8kxrl9L79Oe-242" value="" style="edgeStyle=orthogonalEdgeStyle;rounded=0;orthogonalLoop=1;jettySize=auto;html=1;" edge="1" parent="1" source="L8o548h7l8kxrl9L79Oe-229" target="L8o548h7l8kxrl9L79Oe-235">
          <mxGeometry relative="1" as="geometry" />
        </mxCell>
        <mxCell id="L8o548h7l8kxrl9L79Oe-251" style="edgeStyle=orthogonalEdgeStyle;rounded=0;orthogonalLoop=1;jettySize=auto;html=1;exitX=0;exitY=0.5;exitDx=0;exitDy=0;entryX=1;entryY=0.5;entryDx=0;entryDy=0;" edge="1" parent="1" source="L8o548h7l8kxrl9L79Oe-229" target="L8o548h7l8kxrl9L79Oe-245">
          <mxGeometry relative="1" as="geometry" />
        </mxCell>
        <mxCell id="L8o548h7l8kxrl9L79Oe-229" value="Plays In" style="rhombus;whiteSpace=wrap;html=1;rounded=0;" vertex="1" parent="1">
          <mxGeometry x="1320" y="340" width="80" height="80" as="geometry" />
        </mxCell>
        <mxCell id="L8o548h7l8kxrl9L79Oe-231" value="Wins" style="ellipse;whiteSpace=wrap;html=1;" vertex="1" parent="1">
          <mxGeometry x="1290" y="190" width="80" height="30" as="geometry" />
        </mxCell>
        <mxCell id="L8o548h7l8kxrl9L79Oe-232" value="Appearances" style="ellipse;whiteSpace=wrap;html=1;" vertex="1" parent="1">
          <mxGeometry x="1380" y="190" width="80" height="30" as="geometry" />
        </mxCell>
        <mxCell id="L8o548h7l8kxrl9L79Oe-243" style="edgeStyle=orthogonalEdgeStyle;rounded=0;orthogonalLoop=1;jettySize=auto;html=1;exitX=0.25;exitY=0;exitDx=0;exitDy=0;" edge="1" parent="1" source="L8o548h7l8kxrl9L79Oe-235" target="L8o548h7l8kxrl9L79Oe-231">
          <mxGeometry relative="1" as="geometry" />
        </mxCell>
        <mxCell id="L8o548h7l8kxrl9L79Oe-244" style="edgeStyle=orthogonalEdgeStyle;rounded=0;orthogonalLoop=1;jettySize=auto;html=1;exitX=1;exitY=0;exitDx=0;exitDy=0;" edge="1" parent="1" source="L8o548h7l8kxrl9L79Oe-235" target="L8o548h7l8kxrl9L79Oe-232">
          <mxGeometry relative="1" as="geometry" />
        </mxCell>
        <mxCell id="L8o548h7l8kxrl9L79Oe-235" value="UEFA Champions League" style="rounded=0;whiteSpace=wrap;html=1;" vertex="1" parent="1">
          <mxGeometry x="1310" y="247.5" width="120" height="60" as="geometry" />
        </mxCell>
        <mxCell id="L8o548h7l8kxrl9L79Oe-238" value="Wins" style="ellipse;whiteSpace=wrap;html=1;" vertex="1" parent="1">
          <mxGeometry x="1220" y="230" width="80" height="30" as="geometry" />
        </mxCell>
        <mxCell id="L8o548h7l8kxrl9L79Oe-239" value="Appearances" style="ellipse;whiteSpace=wrap;html=1;" vertex="1" parent="1">
          <mxGeometry x="1125" y="230" width="80" height="30" as="geometry" />
        </mxCell>
        <mxCell id="L8o548h7l8kxrl9L79Oe-240" value="1" style="text;html=1;align=center;verticalAlign=middle;resizable=0;points=[];autosize=1;strokeColor=none;" vertex="1" parent="1">
          <mxGeometry x="1380" y="310" width="20" height="20" as="geometry" />
        </mxCell>
        <mxCell id="L8o548h7l8kxrl9L79Oe-241" value="1" style="text;html=1;align=center;verticalAlign=middle;resizable=0;points=[];autosize=1;strokeColor=none;" vertex="1" parent="1">
          <mxGeometry x="1155" y="180" width="20" height="20" as="geometry" />
        </mxCell>
        <mxCell id="L8o548h7l8kxrl9L79Oe-246" style="edgeStyle=orthogonalEdgeStyle;rounded=0;orthogonalLoop=1;jettySize=auto;html=1;exitX=0.75;exitY=0;exitDx=0;exitDy=0;entryX=0.5;entryY=1;entryDx=0;entryDy=0;" edge="1" parent="1" source="L8o548h7l8kxrl9L79Oe-245" target="L8o548h7l8kxrl9L79Oe-238">
          <mxGeometry relative="1" as="geometry" />
        </mxCell>
        <mxCell id="L8o548h7l8kxrl9L79Oe-247" style="edgeStyle=orthogonalEdgeStyle;rounded=0;orthogonalLoop=1;jettySize=auto;html=1;exitX=0.25;exitY=0;exitDx=0;exitDy=0;entryX=0.5;entryY=1;entryDx=0;entryDy=0;" edge="1" parent="1" source="L8o548h7l8kxrl9L79Oe-245" target="L8o548h7l8kxrl9L79Oe-239">
          <mxGeometry relative="1" as="geometry" />
        </mxCell>
        <mxCell id="L8o548h7l8kxrl9L79Oe-249" style="edgeStyle=orthogonalEdgeStyle;rounded=0;orthogonalLoop=1;jettySize=auto;html=1;exitX=0.5;exitY=1;exitDx=0;exitDy=0;entryX=0.5;entryY=0;entryDx=0;entryDy=0;" edge="1" parent="1" source="L8o548h7l8kxrl9L79Oe-245" target="L8o548h7l8kxrl9L79Oe-248">
          <mxGeometry relative="1" as="geometry" />
        </mxCell>
        <mxCell id="L8o548h7l8kxrl9L79Oe-245" value="League Tournament" style="rounded=0;whiteSpace=wrap;html=1;" vertex="1" parent="1">
          <mxGeometry x="1160" y="290" width="120" height="60" as="geometry" />
        </mxCell>
        <mxCell id="L8o548h7l8kxrl9L79Oe-248" value="Tournament Name" style="ellipse;whiteSpace=wrap;html=1;" vertex="1" parent="1">
          <mxGeometry x="1180" y="365" width="95" height="40" as="geometry" />
        </mxCell>
        <mxCell id="L8o548h7l8kxrl9L79Oe-255" style="edgeStyle=orthogonalEdgeStyle;rounded=0;orthogonalLoop=1;jettySize=auto;html=1;exitX=0.5;exitY=1;exitDx=0;exitDy=0;" edge="1" parent="1" source="L8o548h7l8kxrl9L79Oe-204" target="L8o548h7l8kxrl9L79Oe-204">
          <mxGeometry relative="1" as="geometry" />
        </mxCell>
        <mxCell id="L8o548h7l8kxrl9L79Oe-257" value="1" style="text;html=1;align=center;verticalAlign=middle;resizable=0;points=[];autosize=1;strokeColor=none;" vertex="1" parent="1">
          <mxGeometry x="1150" y="880" width="20" height="20" as="geometry" />
        </mxCell>
        <mxCell id="L8o548h7l8kxrl9L79Oe-259" value="" style="edgeStyle=orthogonalEdgeStyle;rounded=0;orthogonalLoop=1;jettySize=auto;html=1;" edge="1" parent="1" source="L8o548h7l8kxrl9L79Oe-267" target="L8o548h7l8kxrl9L79Oe-272">
          <mxGeometry relative="1" as="geometry" />
        </mxCell>
        <mxCell id="L8o548h7l8kxrl9L79Oe-260" style="edgeStyle=orthogonalEdgeStyle;rounded=0;orthogonalLoop=1;jettySize=auto;html=1;exitX=0;exitY=0.5;exitDx=0;exitDy=0;entryX=0.988;entryY=0.733;entryDx=0;entryDy=0;entryPerimeter=0;" edge="1" parent="1" source="L8o548h7l8kxrl9L79Oe-267" target="L8o548h7l8kxrl9L79Oe-271">
          <mxGeometry relative="1" as="geometry" />
        </mxCell>
        <mxCell id="L8o548h7l8kxrl9L79Oe-261" style="edgeStyle=orthogonalEdgeStyle;rounded=0;orthogonalLoop=1;jettySize=auto;html=1;exitX=0;exitY=1;exitDx=0;exitDy=0;entryX=1;entryY=0.5;entryDx=0;entryDy=0;" edge="1" parent="1" source="L8o548h7l8kxrl9L79Oe-267" target="L8o548h7l8kxrl9L79Oe-269">
          <mxGeometry relative="1" as="geometry" />
        </mxCell>
        <mxCell id="L8o548h7l8kxrl9L79Oe-262" style="edgeStyle=orthogonalEdgeStyle;rounded=0;orthogonalLoop=1;jettySize=auto;html=1;exitX=0;exitY=0;exitDx=0;exitDy=0;entryX=1;entryY=0.5;entryDx=0;entryDy=0;" edge="1" parent="1" source="L8o548h7l8kxrl9L79Oe-267" target="L8o548h7l8kxrl9L79Oe-270">
          <mxGeometry relative="1" as="geometry" />
        </mxCell>
        <mxCell id="L8o548h7l8kxrl9L79Oe-263" style="edgeStyle=orthogonalEdgeStyle;rounded=0;orthogonalLoop=1;jettySize=auto;html=1;exitX=1;exitY=0;exitDx=0;exitDy=0;entryX=0;entryY=0.5;entryDx=0;entryDy=0;" edge="1" parent="1" source="L8o548h7l8kxrl9L79Oe-267" target="L8o548h7l8kxrl9L79Oe-268">
          <mxGeometry relative="1" as="geometry" />
        </mxCell>
        <mxCell id="L8o548h7l8kxrl9L79Oe-264" style="edgeStyle=orthogonalEdgeStyle;rounded=0;orthogonalLoop=1;jettySize=auto;html=1;exitX=1;exitY=0.25;exitDx=0;exitDy=0;entryX=0;entryY=0.5;entryDx=0;entryDy=0;" edge="1" parent="1" source="L8o548h7l8kxrl9L79Oe-267" target="L8o548h7l8kxrl9L79Oe-273">
          <mxGeometry relative="1" as="geometry" />
        </mxCell>
        <mxCell id="L8o548h7l8kxrl9L79Oe-265" style="edgeStyle=orthogonalEdgeStyle;rounded=0;orthogonalLoop=1;jettySize=auto;html=1;exitX=1;exitY=0.75;exitDx=0;exitDy=0;entryX=0;entryY=0.5;entryDx=0;entryDy=0;" edge="1" parent="1" source="L8o548h7l8kxrl9L79Oe-267" target="L8o548h7l8kxrl9L79Oe-275">
          <mxGeometry relative="1" as="geometry" />
        </mxCell>
        <mxCell id="L8o548h7l8kxrl9L79Oe-266" style="edgeStyle=orthogonalEdgeStyle;rounded=0;orthogonalLoop=1;jettySize=auto;html=1;exitX=1;exitY=1;exitDx=0;exitDy=0;entryX=0;entryY=0.5;entryDx=0;entryDy=0;" edge="1" parent="1" source="L8o548h7l8kxrl9L79Oe-267" target="L8o548h7l8kxrl9L79Oe-274">
          <mxGeometry relative="1" as="geometry" />
        </mxCell>
        <mxCell id="L8o548h7l8kxrl9L79Oe-267" value="Overall Stats" style="rounded=0;whiteSpace=wrap;html=1;" vertex="1" parent="1">
          <mxGeometry x="1360" y="965" width="120" height="60" as="geometry" />
        </mxCell>
        <mxCell id="L8o548h7l8kxrl9L79Oe-268" value="&lt;b&gt;PlayerID&lt;/b&gt;" style="ellipse;whiteSpace=wrap;html=1;" vertex="1" parent="1">
          <mxGeometry x="1530" y="940" width="80" height="30" as="geometry" />
        </mxCell>
        <mxCell id="L8o548h7l8kxrl9L79Oe-269" value="Minutes Played" style="ellipse;whiteSpace=wrap;html=1;" vertex="1" parent="1">
          <mxGeometry x="1240" y="1060" width="80" height="30" as="geometry" />
        </mxCell>
        <mxCell id="L8o548h7l8kxrl9L79Oe-270" value="Second Yellows" style="ellipse;whiteSpace=wrap;html=1;" vertex="1" parent="1">
          <mxGeometry x="1240" y="940" width="80" height="30" as="geometry" />
        </mxCell>
        <mxCell id="L8o548h7l8kxrl9L79Oe-271" value="Red Cards" style="ellipse;whiteSpace=wrap;html=1;" vertex="1" parent="1">
          <mxGeometry x="1240" y="1020" width="80" height="30" as="geometry" />
        </mxCell>
        <mxCell id="L8o548h7l8kxrl9L79Oe-272" value="Yellow Cards" style="ellipse;whiteSpace=wrap;html=1;" vertex="1" parent="1">
          <mxGeometry x="1240" y="980" width="80" height="30" as="geometry" />
        </mxCell>
        <mxCell id="L8o548h7l8kxrl9L79Oe-273" value="Assists" style="ellipse;whiteSpace=wrap;html=1;" vertex="1" parent="1">
          <mxGeometry x="1530" y="980" width="80" height="30" as="geometry" />
        </mxCell>
        <mxCell id="L8o548h7l8kxrl9L79Oe-274" value="Goals" style="ellipse;whiteSpace=wrap;html=1;" vertex="1" parent="1">
          <mxGeometry x="1530" y="1060" width="80" height="30" as="geometry" />
        </mxCell>
        <mxCell id="L8o548h7l8kxrl9L79Oe-275" value="Appearances" style="ellipse;whiteSpace=wrap;html=1;" vertex="1" parent="1">
          <mxGeometry x="1530" y="1020" width="80" height="30" as="geometry" />
        </mxCell>
        <mxCell id="L8o548h7l8kxrl9L79Oe-280" value="1" style="text;html=1;align=center;verticalAlign=middle;resizable=0;points=[];autosize=1;strokeColor=none;" vertex="1" parent="1">
          <mxGeometry x="1390" y="940" width="20" height="20" as="geometry" />
        </mxCell>
        <mxCell id="L8o548h7l8kxrl9L79Oe-281" value="1" style="text;html=1;align=center;verticalAlign=middle;resizable=0;points=[];autosize=1;strokeColor=none;" vertex="1" parent="1">
          <mxGeometry x="1280" y="330" width="20" height="20" as="geometry" />
        </mxCell>
      </root>
    </mxGraphModel>
  </diagram>
</mxfile>
